<?xml version="1.0" encoding="UTF-8" standalone="no"?>
<svg width="43px" height="89px" viewBox="0 0 43 89" version="1.1" xmlns="http://www.w3.org/2000/svg" xmlns:xlink="http://www.w3.org/1999/xlink">
    <!-- Generator: Sketch 3.8.1 (29687) - http://www.bohemiancoding.com/sketch -->
    <title>arrow-straigth</title>
    <desc>Created with Sketch.</desc>
    <defs>
      <path id="arrow-straight" d="M31,27L31 87.8345986 11 87.8345986 11 27 0 27 0 23.3205187 18.6991334 0 20.9999997 1.73451625e-09 23.4029207 1.73451625e-09 42 23.428586 41.9999995 27 31 27z"/>
      <path id="arrow-turn-left" d="M27,30.8580045L49 30.8580045 49 80.8345986 69 80.8345986 69 29.4290022 69 10.8580045 27 10.8580045 27 5.0553102e-07 23.428586 0 1.73451652e-09 18.5970793 1.73451638e-09 21.0000003 0 23.3008666 23.3205187 42 27 42 27 30.8580045z"/>
      <path id="arrow-turn-right" d="M42,30.8580045L20 30.8580045 20 80.8345986 9.09494702e-13 80.8345986 9.09494702e-13 29.4290022 0 10.8580045 42 10.8580045 42 5.0553102e-07 45.571414 0 69 18.5970793 69 21.0000003 69 23.3008666 45.6794813 42 42 42z"/>

    </defs>
</svg>
